HIERARCHY
ROOT Hips
{
 OFFSET 0.000000 0.000000 0.000000
 CHANNELS 6 Xposition Yposition Zposition Yrotation Xrotation Zrotation
 JOINT Chest
 {
  OFFSET 0.000000 9.585900 0.002600
  CHANNELS 3 Yrotation Xrotation Zrotation
  JOINT Chest2
  {
   OFFSET 0.000000 9.601200 -0.005300
   CHANNELS 3 Yrotation Xrotation Zrotation
   JOINT Chest3
   {
    OFFSET 0.000000 9.561800 0.000000
    CHANNELS 3 Yrotation Xrotation Zrotation
    JOINT Chest4
    {
     OFFSET 0.000000 9.552100 0.000000
     CHANNELS 3 Yrotation Xrotation Zrotation
     JOINT Neck
     {
      OFFSET 0.000000 14.453000 0.000000
      CHANNELS 3 Yrotation Xrotation Zrotation
      JOINT Head
      {
       OFFSET 0.000000 8.936500 -0.011300
       CHANNELS 3 Yrotation Xrotation Zrotation
       End Site
       {
        OFFSET 0.000000 17.073600 -0.006000
       }
      }
     }
     JOINT RightCollar
     {
      OFFSET -2.921100 9.558500 0.000000
      CHANNELS 3 Yrotation Xrotation Zrotation
      JOINT RightShoulder
      {
       OFFSET -13.519700 0.000000 0.000000
       CHANNELS 3 Yrotation Xrotation Zrotation
       JOINT RightElbow
       {
        OFFSET 0.000000 -29.696600 0.000000
        CHANNELS 3 Yrotation Xrotation Zrotation
        JOINT RightWrist
        {
         OFFSET 0.000000 -24.004700 0.000000
         CHANNELS 3 Yrotation Xrotation Zrotation
         End Site
         {
          OFFSET 0.000000 -17.728500 0.000000
         }
        }
       }
      }
     }
     JOINT LeftCollar
     {
      OFFSET 2.921100 9.558500 0.000000
      CHANNELS 3 Yrotation Xrotation Zrotation
      JOINT LeftShoulder
      {
       OFFSET 13.519700 0.000000 0.000000
       CHANNELS 3 Yrotation Xrotation Zrotation
       JOINT LeftElbow
       {
        OFFSET 0.000000 -29.696600 0.000000
        CHANNELS 3 Yrotation Xrotation Zrotation
        JOINT LeftWrist
        {
         OFFSET 0.000000 -24.004700 0.000000
         CHANNELS 3 Yrotation Xrotation Zrotation
         End Site
         {
          OFFSET 0.000000 -17.728500 0.000000
         }
        }
       }
      }
     }
    }
   }
  }
 }
 JOINT RightHip
 {
  OFFSET -7.771700 -0.012900 -0.001300
  CHANNELS 3 Yrotation Xrotation Zrotation
  JOINT RightKnee
  {
   OFFSET 0.000000 -40.869800 0.001200
   CHANNELS 3 Yrotation Xrotation Zrotation
   JOINT RightAnkle
   {
    OFFSET 0.000000 -39.717900 0.002100
    CHANNELS 3 Yrotation Xrotation Zrotation
    JOINT RightToe
    {
     OFFSET 0.000000 -4.965400 11.033500
     CHANNELS 3 Yrotation Xrotation Zrotation
     End Site
     {
      OFFSET 0.000000 -1.423100 5.872300
     }
    }
   }
  }
 }
 JOINT LeftHip
 {
  OFFSET 7.771700 -0.012900 -0.001300
  CHANNELS 3 Yrotation Xrotation Zrotation
  JOINT LeftKnee
  {
   OFFSET 0.000000 -40.869800 0.001200
   CHANNELS 3 Yrotation Xrotation Zrotation
   JOINT LeftAnkle
   {
    OFFSET 0.000000 -39.717900 0.002100
    CHANNELS 3 Yrotation Xrotation Zrotation
    JOINT LeftToe
    {
     OFFSET 0.000000 -4.965400 11.033500
     CHANNELS 3 Yrotation Xrotation Zrotation
     End Site
     {
      OFFSET 0.000000 -1.423100 5.872300
     }
    }
   }
  }
 }
}
MOTION
Frames: 9
Frame Time: 0.008333
-72.341576 43.771059 18.235099 176.333974 -26.736505 0.765961 0.404482 19.350933 3.639419 -0.052358 2.388153 0.493723 -0.075122 3.924495 0.811015 0.061885 16.766433 3.505607 1.211759 15.120920 -5.947092 2.668977 -9.678875 -6.677589 10.896623 -0.051795 -2.540850 -1.521596 -9.110856 -7.902923 -149.552177 -71.471119 171.875206 -2.391902 4.096024 -28.886048 -16.419200 -1.737014 -5.493650 9.919405 -5.903017 3.216120 171.697194 -67.397328 163.745959 12.012959 5.518209 33.720947 0.876854 -65.445633 6.517218 -141.618482 64.095274 -139.873823 -6.632779 -27.148494 6.756145 0.300285 -1.011269 0.132259 6.221529 -52.713602 -5.189702 175.263744 61.802836 175.132888 -1.727508 -38.805323 3.319485 0.063869 0.281159 0.052254
-72.339973 43.768558 18.231641 176.323339 -26.728910 0.752402 0.404035 19.354696 3.648240 -0.053073 2.389114 0.493765 -0.076242 3.925954 0.810775 0.069220 16.761682 3.506464 1.204318 15.139748 -5.957559 2.677000 -9.665408 -6.691722 10.846042 0.004726 -2.491199 -1.587359 -9.287794 -7.802472 -150.679478 -72.412447 172.388388 -1.871829 3.748882 -28.333055 -16.411820 -1.740838 -5.527440 9.916433 -5.980997 2.992826 174.132417 -68.093384 162.101774 11.609654 4.865468 33.088880 0.840813 -65.452014 6.561196 -141.595820 64.101981 -139.851084 -6.607514 -27.098565 6.723791 0.288689 -1.037112 0.149308 6.208674 -52.721505 -5.152105 175.284757 61.792782 175.147339 -1.731694 -38.818965 3.328300 0.060280 0.281333 0.048639
-72.338212 43.766169 18.227079 176.326798 -26.730264 0.733480 0.391517 19.363551 3.656797 -0.054097 2.388801 0.493483 -0.078023 3.925546 0.810209 0.046436 16.762444 3.500654 1.225348 15.160791 -5.970236 2.687532 -9.641834 -6.706247 10.861817 0.033471 -2.467338 -1.652347 -9.450218 -7.697495 -151.855981 -73.409716 172.899434 -1.427168 3.594192 -27.940582 -16.372729 -1.745450 -5.541916 9.866687 -6.086711 2.735311 176.910765 -68.810647 160.202225 11.201352 4.300235 32.433068 0.801139 -65.449190 6.601131 -141.591354 64.103828 -139.841480 -6.598286 -27.060231 6.696494 0.287573 -1.046743 0.163671 6.183097 -52.722606 -5.120785 175.299132 61.782287 175.160133 -1.730964 -38.828900 3.329599 0.057967 0.280134 0.044491
-72.336605 43.764175 18.221026 176.329506 -26.742962 0.718323 0.376214 19.379185 3.663509 -0.072639 2.386940 0.485990 -0.062308 3.927538 0.815762 0.027665 16.761616 3.490865 1.222532 15.220228 -5.988854 2.714062 -9.576176 -6.733651 10.889975 0.061479 -2.435215 -1.679300 -9.623377 -7.616630 -153.190903 -74.455457 173.494680 -1.110053 3.689460 -27.714963 -16.351179 -1.736246 -5.602553 9.792048 -6.249570 2.503931 -179.923368 -69.546385 157.970709 10.820810 3.814548 31.798950 0.781043 -65.434477 6.620906 -141.613549 64.103471 -139.850297 -6.598370 -27.042861 6.677853 0.291864 -1.035635 0.167757 6.160904 -52.709628 -5.091639 175.309712 61.771366 175.168131 -1.733662 -38.841115 3.334388 0.056538 0.279193 0.042655
-72.334687 43.762081 18.214559 176.342734 -26.760304 0.699014 0.349476 19.395442 3.665128 -0.063807 2.385082 0.483649 -0.084707 3.926507 0.808080 0.033900 16.766348 3.493777 1.235107 15.254206 -5.998874 2.722977 -9.537513 -6.743456 10.930325 0.080604 -2.397418 -1.660085 -9.800689 -7.554358 -154.762503 -75.542364 174.243451 -0.947835 4.041397 -27.644319 -16.345011 -1.720723 -5.666768 9.705747 -6.468458 2.269006 -176.388473 -70.297359 155.386473 10.499456 3.389411 31.240535 0.754548 -65.412293 6.637306 -141.656705 64.104820 -139.875762 -6.611048 -27.051520 6.668449 0.292455 -0.968857 0.156971 6.132677 -52.692525 -5.064024 175.320763 61.761707 175.178080 -1.737471 -38.853780 3.341595 0.055341 0.280653 0.039945
-72.333071 43.760086 18.207185 176.362641 -26.785577 0.681264 0.328485 19.409358 3.653490 -0.058792 2.389612 0.492087 -0.086826 3.930717 0.813717 0.033254 16.768633 3.495910 1.229774 15.287081 -6.013395 2.725541 -9.496078 -6.749714 10.946696 0.087171 -2.378407 -1.573062 -9.979213 -7.483613 -156.527193 -76.668601 175.114098 -0.930862 4.592874 -27.714262 -16.355557 -1.708766 -5.728606 9.604610 -6.738060 2.038196 -172.533601 -71.067750 152.467586 10.246785 2.995126 30.796175 0.721100 -65.382921 6.653572 -141.718093 64.105623 -139.922640 -6.635311 -27.073407 6.663774 0.299026 -0.941291 0.156491 6.115483 -52.664435 -5.053665 175.318418 61.753455 175.182574 -1.741075 -38.871021 3.348900 0.051911 0.287296 0.034552
-72.332226 43.757487 18.200293 176.387184 -26.809644 0.668089 0.309025 19.428790 3.650749 -0.053612 2.385335 0.487127 -0.094763 3.935048 0.818809 0.025397 16.765095 3.488152 1.238052 15.319874 -6.015551 2.725049 -9.445325 -6.758282 10.972073 0.096760 -2.348810 -1.439196 -10.170984 -7.410790 -158.315052 -77.832206 175.979722 -1.030649 5.246845 -27.931785 -16.365336 -1.697755 -5.782833 9.488312 -7.044517 1.827333 -168.392751 -71.867392 149.232815 10.056145 2.594027 30.498376 0.693225 -65.356269 6.657082 -141.798397 64.105540 -139.990532 -6.662258 -27.112746 6.669044 0.299548 -0.913732 0.149526 6.095453 -52.640273 -5.055258 175.303803 61.744777 175.175352 -1.742862 -38.882244 3.348592 0.050143 0.291185 0.028763
-72.334161 43.752745 18.196904 176.391239 -26.811589 0.680987 0.304477 19.426263 3.630747 -0.049082 2.382784 0.485933 -0.095650 3.934514 0.814424 0.024909 16.766271 3.488415 1.237418 15.333785 -6.006099 2.726520 -9.377762 -6.774280 11.066231 0.078327 -2.276602 -1.367251 -10.356340 -7.370803 -159.871272 -79.031010 176.642920 -1.216608 5.889902 -28.323413 -16.384585 -1.720979 -5.871276 9.315801 -7.364512 1.687914 -164.002324 -72.705653 145.723350 9.922502 2.169694 30.382563 0.715312 -65.352025 6.624792 -141.863111 64.105236 -140.048623 -6.698824 -27.194858 6.707644 0.307010 -0.847844 0.118244 6.116633 -52.637829 -5.087814 175.289649 61.737706 175.166023 -1.748515 -38.888050 3.350676 0.052919 0.292562 0.026837
-72.335122 43.748695 18.191718 176.406869 -26.828891 0.683767 0.299905 19.432068 3.616433 -0.058435 2.390965 0.492173 -0.085217 3.929189 0.808129 0.029053 16.769490 3.488951 1.229284 15.371734 -6.010526 2.725147 -9.337524 -6.774873 11.143723 0.045559 -2.228576 -1.311907 -10.550044 -7.298890 -160.860143 -80.255995 176.808588 -1.450129 6.424157 -28.904424 -16.403112 -1.750148 -5.908966 9.064557 -7.709277 1.532811 -159.453938 -73.589339 142.030679 9.845182 1.766505 30.477962 0.710352 -65.336556 6.612921 -141.927023 64.099671 -140.110456 -6.727636 -27.252833 6.732629 0.314014 -0.811552 0.103543 6.114915 -52.621202 -5.105806 175.275878 61.729333 175.155756 -1.755686 -38.894386 3.352622 0.056664 0.293336 0.025368
